<?xml version="1.0" encoding="UTF-8"?>
<svg id="Capa_1" xmlns="http://www.w3.org/2000/svg" version="1.1" viewBox="0 0 19.2 19.2">
  <!-- Generator: Adobe Illustrator 29.8.7, SVG Export Plug-In . SVG Version: 2.1.1 Build 1)  -->
  <defs>
    <style>
      .st0 {
        fill: #ff7a01;
      }
    </style>
  </defs>
  <g>
    <path d="M18.31,11.43s-.02-.09-.04-.14c0,0,0,0,0,0-.04-.14-.1-.29-.19-.45,0,0,0,0,0,0-.07-.13-.17-.26-.29-.39h0c-.17-.18-.38-.36-.66-.52-.06-.03-.12-.07-.18-.1-.28-.14-.57-.25-.91-.35,0,0-.01,0-.02-.02-.05-.2-.11-.43-.18-.68,0,0,0-.02,0-.02.1-.08.19-.18.27-.28.28-.37.38-.84.3-1.29,0-.05-.02-.1-.03-.15v-.02c.08-.13.17-.29.27-.45h0s0-.02,0-.02c.05-.08.09-.17.14-.26h0s0,0,0,0c.05-.09.09-.17.13-.25.18-.36.39-.81.55-1.27.17-.47.3-.96.34-1.41.05-.55-.13-1.09-.49-1.48-.34-.37-.81-.58-1.3-.58-.57,0-1.1.27-1.45.75l-.14.18s0,0,0,0l-.08.21c-.08.22-.16.43-.26.65,0,.02-.03.02-.04,0-.02-.02-.04-.04-.06-.06-.34-.36-.71-.57-1.05-.68-.34-.12-.64-.15-.83-.16-.06,0-.11,0-.17,0-.41,0-.82.1-1.17.28-.25.13-.48.3-.66.5-.1.11-.2.23-.28.36-.02.03-.03.05-.05.08,0,0,0,0-.01,0-.11.06-.21.12-.29.18-.14.11-.25.23-.32.33-.17.23-.27.49-.3.76,0,.02-.02.03-.03.02-.14-.06-.28-.12-.42-.19l-.1-.05s0,0,0,0c0,0-.02-.01-.03-.02-.2-.12-.61-.38-1.17-.38-.52,0-1,.22-1.36.62l-.17.19s0,0,0,0l-.1.24c-.07.18-.12.36-.13.54,0,.01,0,.02-.02.02l-2.96.51-1.5.26s-.02.01-.02.03l.27,1.5.36,1.98.26,1.48s.01.02.03.02l.8-.14s.03,0,.03.02l.18.99s0,.03-.02.03l-.79.14s-.02.01-.02.03l.27,1.5.36,2,.27,1.47s.01.02.03.02l1.48-.25,1.16-.2s.02,0,.03.01c.31.55.86.83,1.38.86h0c.33.02.66-.07.93-.26h0c.32-.21.56-.45.75-.63.02-.02.04-.04.06-.06l.02-.02c.06-.06.11-.11.15-.14h0s0-.02,0-.02c.03-.02.05-.05.08-.06.03-.02.05-.04.07-.05,0,0,0,0,.01,0,.17-.12.35-.23.57-.36h0s0,0,0,0c.06-.03.12-.07.17-.1h0s0,0,0,0c.06-.03.12-.07.2-.11l.13-.07.13-.07s.04-.03.07-.04c.02-.01.04-.02.05-.03h0s0,0,0,0l.08-.05c.09-.05.18-.1.27-.15.34-.2.79-.46,1.27-.82.02-.01.04,0,.04.02h0c0,.43.08.82.22,1.16.26.64.74,1.09,1.35,1.26.11.03.22.05.33.06.08,0,.14,0,.19,0h.68c.4,0,.73-.3.77-.69l.07-.68c.01-.14.06-.3.29-.59.06-.07.11-.13.17-.19h0c.07-.07.13-.14.19-.21.02-.02.07-.07.15-.14.05-.05.11-.1.17-.15.4-.35.89-.79,1.25-1.31.26-.37.4-.72.46-1.03h0c.08-.37.05-.7,0-.94Z"/>
    <g>
      <g>
        <path class="st0" d="M13.16,5.1h0c-.26.05-1.57.34-2.15.04,0,.55.34,1.11.97,1.14h0c.09,0,.18,0,.28-.02.11-.02.2-.05.29-.09.41-.18.61-.58.61-.99,0-.03,0-.06,0-.09Z"/>
        <g>
          <g>
            <path class="st0" d="M10.8,11.29s-.06.02-.08.03c0,0,0,0,0,0l.02-.04h.07Z"/>
            <path class="st0" d="M11.96,11.55h-.01s-.02,0-.03,0v.03s.08,0,.12-.01c-.03,0-.05,0-.08-.01Z"/>
          </g>
          <g>
            <path class="st0" d="M16.58,12.52c-.3.44-.83.88-1.19,1.2-.09.08-.16.15-.22.21-.08.08-.16.16-.23.25-.08.09-.15.17-.22.26-.32.4-.57.84-.63,1.4,0,0-.02,0-.02,0-.03,0-.05,0-.08-.01-.32-.09-.44-.54-.45-.97,0-.07,0-.14,0-.21.01-.2.05-.37.1-.48.02-.05.05-.09.08-.13.17-.21.42-.19.58-.35.19-.18.35-.64.5-.86.13-.19.3-.35.45-.52-.8-.06-1.6-.09-2.4-.15-.02,0-.07-.06-.13-.06h0c-.07,0-.34.28-.59.54-.18.19-.34.37-.41.43-.19.17-.37.33-.55.47l-.06.04c-.39.3-.78.54-1.17.77-.11.07-.23.13-.34.19-.04.02-.08.05-.12.07-.09.05-.18.1-.27.15-.07.04-.15.08-.22.13-.07.04-.14.08-.21.12-.22.13-.44.27-.66.42-.03.02-.05.04-.08.06-.08.05-.15.11-.21.16-.09.07-.17.15-.25.23-.19.19-.37.37-.61.53-.15,0-.19-.2-.19-.41,0-.14.02-.28.04-.36,0-.01,0-.02,0-.03,0-.03.02-.07.04-.11.02-.06.05-.12.09-.19,0-.02.02-.03.03-.05.03-.05.06-.11.09-.16.02-.04.05-.08.07-.12.06-.09.11-.16.16-.2,0,0,0,0,.01,0,.23-.21.41-.15.66-.23.1-.03.82-.58,1.33-.98.24-.19.43-.34.49-.4.19-.18.45-.52.71-.91.09-.13.17-.27.26-.41.02-.03.03-.05.05-.08.03-.05.06-.1.09-.16.12.01.27.02.44.02s.37,0,.6-.03c.04,0,.07,0,.11-.01.3-.04.64-.1,1.02-.2h0s.04,0,.06,0c0,0,.01,0,.01,0,.03,0,.06,0,.09,0,.01,0,.03,0,.04,0,.53-.09.92-.45,1.17-.67.15.03.3.06.45.09.1.02.21.04.31.07.37.09.74.2,1.07.37.03.02.07.03.1.05.61.35.53.81.22,1.27Z"/>
            <path class="st0" d="M10.8,11.29s-.06.02-.08.03c0,0,0,0,0,0l.02-.04h.07Z"/>
            <path class="st0" d="M12.04,11.56s-.08,0-.11.01v-.03s.01,0,.02,0h.01s.05.01.08.02Z"/>
            <path class="st0" d="M11.96,11.55h-.01s-.02,0-.03,0v.03s.08,0,.12-.01c-.03,0-.05,0-.08-.01ZM10.73,11.28l-.02.04s0,0,0,0c.03,0,.05-.02.08-.03h-.07ZM11.96,11.55h-.01s-.02,0-.03,0v.03s.08,0,.12-.01c-.03,0-.05,0-.08-.01ZM10.73,11.28l-.02.04s0,0,0,0c.03,0,.05-.02.08-.03h-.07ZM11.96,11.55h-.01s-.02,0-.03,0v.03s.08,0,.12-.01c-.03,0-.05,0-.08-.01ZM10.73,11.28l-.02.04s0,0,0,0c.03,0,.05-.02.08-.03h-.07ZM11.96,11.55h-.01s-.02,0-.03,0v.03s.08,0,.12-.01c-.03,0-.05,0-.08-.01ZM10.73,11.28l-.02.04s0,0,0,0c.03,0,.05-.02.08-.03h-.07ZM11.96,11.55h-.01s-.02,0-.03,0v.03s.08,0,.12-.01c-.03,0-.05,0-.08-.01ZM10.73,11.28l-.02.04s0,0,0,0c.03,0,.05-.02.08-.03h-.07ZM11.96,11.55h-.01s-.02,0-.03,0v.03s.08,0,.12-.01c-.03,0-.05,0-.08-.01ZM11.96,11.55h-.01s-.02,0-.03,0v.03s.08,0,.12-.01c-.03,0-.05,0-.08-.01Z"/>
          </g>
          <path class="st0" d="M16.3,3.2c-.05.59-.37,1.41-.73,2.12-.04.08-.08.15-.12.23-.04.09-.09.17-.13.25-.08.14-.16.28-.24.4-.03.05-.06.11-.1.15-.02.03-.06.08-.1.14-.06.07-.13.16-.21.26l-.31-.87v-.03s-.02-.03-.02-.03h0s0,0,0,0l-.04-.11s.01-.02.02-.02h0c.05-.06.1-.12.14-.18.01-.02.03-.04.04-.06.03-.04.07-.09.1-.14.03-.05.07-.1.1-.15.06-.09.12-.18.18-.28.4-.65.71-1.35.92-1.94.07-.1.15-.14.23-.14.15,0,.29.18.27.4Z"/>
        </g>
        <path class="st0" d="M12.89,4.07c-.33-.35-.76-.36-.84-.36h0c-.37-.03-.73.13-.92.42-.15.24-.14.48-.13.6,0,0,0,.01,0,.02-.16-.02-.52-.04-.6.08-.04.05.02.1.11.15.18.09.5.16.5.16.58.3,1.89.01,2.15-.05h0c.01-.05.02-.1.03-.15,0-.02,0-.04,0-.06,0-.13-.03-.49-.32-.8ZM13.01,4.96c-.14.02-.28.05-.42.07-.06,0-.1-.04-.08-.1.01-.04.03-.07.06-.11.04-.06.09-.1.13-.12.05-.03.12-.04.18-.02.03.01.07.03.1.06.04.03.07.07.1.11.03.05,0,.11-.06.12Z"/>
      </g>
      <path class="st0" d="M10.51,11.39l-.02.04s0,0,0,0c.02,0,.05-.02.07-.03h-.06ZM10.51,11.39l-.02.04s0,0,0,0c.02,0,.05-.02.07-.03h-.06ZM10.26,9.54c0-.12-.02-.25-.04-.36h0s0,0,0,0c-.02-.11-.05-.23-.09-.35l-.1-.03-.16-.04h-.05s-.37-.11-.37-.11l-.08-.02h0s0,0,0,0c-.18-.05-.32-.2-.39-.3h0s-.01-.02-.01-.02c-.01-.01-.02-.03-.03-.04-.02-.02-.03-.05-.04-.07-.02-.03-.04-.08-.06-.13-.01-.04-.02-.08-.02-.12,0,0,0,0,0,0-.34-.16-.62-.3-.87-.45-.06-.04-.13-.08-.19-.12h0l-.12-.08-.02-.02s-.05-.04-.08-.06h-.01s-.02-.02-.02-.02c0,0-.02-.01-.02-.02l-.03-.02-.02-.02h0s0,0,0,0c-.02-.02-.05-.04-.09-.06-.04-.03-.07-.05-.12-.08-.03-.02-.05-.04-.08-.06l-4.48.77.36,1.98,4.76-.82.2,1.12-3.92.68.32,1.78,3.92-.68.21,1.15-4.76.82.36,2,2.51-.43s.04-.1.07-.16c0-.02.02-.04.03-.05.03-.07.06-.13.09-.18.03-.05.05-.1.08-.14.08-.13.15-.23.22-.3,0,0,.02-.02.03-.03.25-.25.49-.29.65-.32.03,0,.06,0,.08-.01.14-.1.58-.47,1.07-.89.3-.26.39-.34.41-.37.13-.14.34-.44.56-.81.09-.15.16-.28.23-.4l.03-.06-.33-.28c.08-.14.15-.27.2-.4.02-.04.04-.09.06-.14,0-.02.02-.04.03-.07h0s0,0,0,0c.1-.26.16-.53.18-.79h0s0-.05,0-.05c0-.06.01-.11.01-.17v-.15Z"/>
      <path class="st0" d="M14.79,7.6l-.55.03h-.28c.21.8.47,1.78.62,2.37.01.04.02.08.03.12.03.1.05.18.06.25,0,.02.01.04.01.06.01.05.02.08.02.09,0,.02-.01.03-.01.03-.01.01-.07.02-.08.02-.05,0-.08.01-.18.1-.26.22-.64.57-1.17.67-.01,0-.03,0-.04,0-.03,0-.06,0-.09,0,0,0,0,0-.01,0-.02,0-.04,0-.06,0h0c-.06,0-.12.01-.18.02h-.05c-.16,0-.33-.02-.5-.06,0,0,0,0,0,0-.09-.02-.18-.04-.27-.05h0s-.02,0-.04,0c-.05,0-.1-.02-.15-.02-.01,0-.02,0-.04,0h0c-.15-.02-.29-.03-.41-.03s-.23,0-.33.02c-.04,0-.07.01-.1.02-.06.01-.12.03-.18.04h-.07s-.02.03-.02.03c-.03.01-.06.02-.09.04-.1.04-.17.09-.21.14.1-.15.18-.31.26-.46,0-.01.01-.03.02-.05.02-.04.04-.07.05-.11.01-.03.02-.06.04-.09.13-.33.22-.65.25-.98h0c.02-.13.02-.28.01-.42h0c0-.15-.03-.3-.06-.45-.05-.24-.13-.48-.24-.72l-.4-.09-.17-.04h-.05s-.13-.04-.13-.04l-.27-.06-.09-.02s-.11-.07-.16-.13h0s-.01-.02-.02-.02c0,0,0-.01-.01-.01,0,0-.01-.02-.01-.02,0,0,0,0,0-.01,0,0,0,0,0,0,0,0,0,0,0,0,.1-.07.18-.13.24-.2.23-.25.28-.52.2-.83,0-.02.02-.02.05-.03.01,0,.03,0,.05,0,.04,0,.09,0,.14,0,.01,0,.03,0,.04,0,.02,0,.04,0,.06,0,.07,0,.16.02.24.03.04,0,.08.01.12.02.16.02.31.05.42.07.11.02.18.03.18.03.2.04.4.06.6.06.42,0,.84-.1,1.25-.29l.7-.5.16-.11h0s.13-.1.13-.1h0l.29-.21.04.11h0s0,.03,0,.03v.03s.33.87.33.87l.07.18.07.19h0s0,.01,0,.01l.1.28s0,.01,0,.01c.02.08-.04.15-.12.16Z"/>
      <path class="st0" d="M9.65,7.54c-.1-.04-.2-.08-.29-.12-.1-.04-.2-.08-.31-.13-.31-.13-.61-.26-.92-.43-.1-.05-.21-.11-.31-.17,0,0-.01,0-.01,0h0s-.07-.04-.1-.06c-.02-.01-.03-.02-.05-.03,0,0,0,0-.01,0-.02-.01-.04-.03-.06-.04-.06-.04-.14-.09-.23-.14-.26-.17-.57-.42-.46-.69.07-.08.15-.11.22-.11.17,0,.35.16.51.24.05.02.09.04.14.07h0c.34.16.71.32,1.11.47,0,0,.02,0,.02,0,.08.03.16.06.24.09h0s0,0,0,0c.05.02.1.04.15.05h0s0,0,0,0c.09.03.17.06.26.09.1.03.19.06.29.09.08.31.03.58-.2.83Z"/>
    </g>
  </g>
  <g>
    <path d="M16.29,16.39h.03c.36.01.56.43.34.71-.19.25-.57.22-.73-.05-.17-.29.04-.65.37-.66ZM16.29,16.48c-.28,0-.44.32-.28.55.15.21.47.2.6-.03s-.05-.53-.32-.52Z"/>
    <path d="M16.11,16.59c.07,0,.14,0,.21,0s.14.03.15.1c0,.05,0,.1-.05.13h-.03s.06.05.07.08c.03.05.05.1.07.15h-.13s-.01-.02-.02-.04c-.02-.04-.06-.14-.11-.14h-.04v.18h-.12v-.46ZM16.23,16.8h.07s.02,0,.03,0c.04-.02.04-.09,0-.11,0,0-.02,0-.03,0h-.06v.12Z"/>
  </g>
</svg>