<?xml version="1.0" encoding="UTF-8"?>
<svg xmlns="http://www.w3.org/2000/svg" xmlns:xlink="http://www.w3.org/1999/xlink" width="1920" zoomAndPan="magnify" viewBox="0 0 1440 809.999993" height="1080" preserveAspectRatio="xMidYMid meet" version="1.0" style="background: transparent;"><defs><g/><clipPath id="cbe2ed44a5"><path d="M 366 98 L 1102 98 L 1102 777 L 366 777 Z M 366 98 " clip-rule="nonzero"/></clipPath><clipPath id="05281fa327"><path d="M 371.46875 47.710938 L 1125.878906 59.265625 L 1114.828125 780.683594 L 360.414062 769.125 Z M 371.46875 47.710938 " clip-rule="nonzero"/></clipPath><clipPath id="b91f30da98"><path d="M 369.921875 47.683594 L 1127.335938 59.289062 L 1116.28125 780.703125 L 358.871094 769.101562 Z M 369.921875 47.683594 " clip-rule="nonzero"/></clipPath><clipPath id="c9ccc657d2"><path d="M 1036 316 L 1124 316 L 1124 358 L 1036 358 Z M 1036 316 " clip-rule="nonzero"/></clipPath><clipPath id="ceb1083a55"><path d="M 371.46875 47.710938 L 1125.878906 59.265625 L 1114.828125 780.683594 L 360.414062 769.125 Z M 371.46875 47.710938 " clip-rule="nonzero"/></clipPath><clipPath id="2496dbb84b"><path d="M 369.921875 47.683594 L 1127.335938 59.289062 L 1116.28125 780.703125 L 358.871094 769.101562 Z M 369.921875 47.683594 " clip-rule="nonzero"/></clipPath><clipPath id="519fefb7f5"><path d="M 745 53 L 777 53 L 777 182 L 745 182 Z M 745 53 " clip-rule="nonzero"/></clipPath><clipPath id="b1844958f7"><path d="M 371.46875 47.710938 L 1125.878906 59.265625 L 1114.828125 780.683594 L 360.414062 769.125 Z M 371.46875 47.710938 " clip-rule="nonzero"/></clipPath><clipPath id="df97c5fc3c"><path d="M 369.921875 47.683594 L 1127.335938 59.289062 L 1116.28125 780.703125 L 358.871094 769.101562 Z M 369.921875 47.683594 " clip-rule="nonzero"/></clipPath><clipPath id="c81310b275"><path d="M 385 201 L 502 201 L 502 282 L 385 282 Z M 385 201 " clip-rule="nonzero"/></clipPath><clipPath id="69f716a211"><path d="M 371.46875 47.710938 L 1125.878906 59.265625 L 1114.828125 780.683594 L 360.414062 769.125 Z M 371.46875 47.710938 " clip-rule="nonzero"/></clipPath><clipPath id="8745117c73"><path d="M 369.921875 47.683594 L 1127.335938 59.289062 L 1116.28125 780.703125 L 358.871094 769.101562 Z M 369.921875 47.683594 " clip-rule="nonzero"/></clipPath><clipPath id="b60bfcad3b"><path d="M 540 630 L 605 630 L 605 710 L 540 710 Z M 540 630 " clip-rule="nonzero"/></clipPath><clipPath id="c0c4b6b806"><path d="M 371.46875 47.710938 L 1125.878906 59.265625 L 1114.828125 780.683594 L 360.414062 769.125 Z M 371.46875 47.710938 " clip-rule="nonzero"/></clipPath><clipPath id="1bec327d96"><path d="M 369.921875 47.683594 L 1127.335938 59.289062 L 1116.28125 780.703125 L 358.871094 769.101562 Z M 369.921875 47.683594 " clip-rule="nonzero"/></clipPath><clipPath id="81455ccd87"><path d="M 889 615 L 965 615 L 965 706 L 889 706 Z M 889 615 " clip-rule="nonzero"/></clipPath><clipPath id="bec04a2811"><path d="M 371.46875 47.710938 L 1125.878906 59.265625 L 1114.828125 780.683594 L 360.414062 769.125 Z M 371.46875 47.710938 " clip-rule="nonzero"/></clipPath><clipPath id="d1609e54f7"><path d="M 369.921875 47.683594 L 1127.335938 59.289062 L 1116.28125 780.703125 L 358.871094 769.101562 Z M 369.921875 47.683594 " clip-rule="nonzero"/></clipPath><clipPath id="e8bd379383"><rect x="0" width="345" y="0" height="373"/></clipPath></defs><g clip-path="url(#cbe2ed44a5)"><g clip-path="url(#05281fa327)"><g clip-path="url(#b91f30da98)"><path fill="#ff7a00" d="M 1097.683594 423.773438 C 1061.644531 422.40625 966.695312 411.347656 960.324219 377.152344 C 952.488281 335.066406 1032.300781 268.707031 1033.105469 268.035156 C 1034.800781 266.628906 1035.210938 264.191406 1034.050781 262.324219 C 1032.890625 260.453125 1030.542969 259.714844 1028.527344 260.609375 C 1027.574219 261.011719 933.902344 301.761719 894.4375 273.820312 C 862.007812 250.851562 879.515625 143.511719 888.996094 104.074219 C 889.535156 101.855469 888.292969 99.613281 886.144531 98.875 C 884 98.136719 881.648438 99.160156 880.691406 101.214844 C 862.585938 141.226562 806.609375 244.9375 765.535156 244.550781 C 765.445312 244.550781 765.355469 244.546875 765.269531 244.546875 C 716.15625 243.792969 688.117188 168.800781 687.84375 168.046875 C 687.125 166.074219 685.117188 164.875 683.019531 165.21875 C 680.941406 165.539062 679.375 167.300781 679.296875 169.390625 C 679.265625 170.074219 676.191406 236.96875 644.3125 251.769531 C 617.863281 264.054688 538.371094 207.476562 509.976562 184.640625 C 508.210938 183.203125 505.632812 183.382812 504.042969 185.011719 C 502.453125 186.640625 502.394531 189.214844 503.863281 190.933594 C 525.636719 216.292969 577 288.738281 553.773438 319.289062 C 530.304688 350.1875 414.511719 325.019531 371.855469 312.734375 C 369.597656 312.058594 367.199219 313.34375 366.457031 315.582031 C 365.71875 317.816406 366.871094 320.257812 369.105469 321.085938 C 412.296875 337.210938 525.011719 386.40625 527.894531 419.804688 C 530.714844 452.644531 454.601562 486.21875 425.015625 496.382812 C 422.800781 497.140625 421.574219 499.480469 422.203125 501.738281 C 422.828125 503.992188 425.097656 505.351562 427.375 504.855469 C 428.304688 504.652344 519.15625 485.488281 541.90625 520.269531 C 560.609375 548.863281 475.726562 651.558594 441.453125 688.722656 C 439.839844 690.480469 439.910156 693.214844 441.625 694.871094 C 443.339844 696.527344 446.070312 696.527344 447.769531 694.855469 C 448.933594 693.707031 564.460938 580.75 615.222656 591.75 C 664.292969 602.394531 650.339844 705.226562 650.191406 706.261719 C 649.867188 708.523438 651.335938 710.664062 653.574219 711.179688 C 655.8125 711.699219 658.058594 710.390625 658.75 708.222656 C 659.007812 707.386719 685.921875 624.269531 740.980469 629.386719 C 796.585938 634.621094 834.152344 772.214844 834.527344 773.605469 C 835.046875 775.554688 836.789062 776.835938 838.707031 776.863281 C 839.035156 776.871094 839.347656 776.832031 839.675781 776.769531 C 841.976562 776.296875 843.484375 774.097656 843.125 771.800781 C 836.082031 725.410156 825.90625 600.046875 862.890625 577.238281 C 907.5 549.726562 995.730469 608.175781 996.625 608.761719 C 998.480469 610.003906 1000.972656 609.667969 1002.433594 607.949219 C 1003.890625 606.253906 1003.820312 603.71875 1002.300781 602.085938 C 1001.71875 601.4375 943.105469 537.890625 948.058594 494.925781 C 952.023438 460.378906 1057.703125 438.164062 1098.078125 432.527344 C 1100.332031 432.207031 1101.992188 430.226562 1101.871094 427.9375 C 1101.796875 425.6875 1099.953125 423.875 1097.683594 423.773438 Z M 1097.683594 423.773438 " fill-opacity="1" fill-rule="nonzero"/></g></g></g><g clip-path="url(#c9ccc657d2)"><g clip-path="url(#ceb1083a55)"><g clip-path="url(#2496dbb84b)"><path fill="#ff7a00" d="M 1121.535156 317.699219 C 1120.316406 316.863281 1118.753906 316.6875 1117.402344 317.238281 L 1039.335938 348.800781 C 1037.273438 349.625 1036.160156 351.898438 1036.742188 354.046875 C 1037.265625 355.96875 1038.984375 357.253906 1040.921875 357.28125 C 1041.164062 357.285156 1041.40625 357.265625 1041.652344 357.226562 L 1119.414062 345.488281 C 1121.535156 345.167969 1123.125 343.34375 1123.160156 341.207031 L 1123.460938 321.382812 C 1123.484375 319.929688 1122.757812 318.53125 1121.535156 317.699219 Z M 1121.535156 317.699219 " fill-opacity="1" fill-rule="nonzero"/></g></g></g><g clip-path="url(#519fefb7f5)"><g clip-path="url(#b1844958f7)"><g clip-path="url(#df97c5fc3c)"><path fill="#ff7a00" d="M 750.175781 53.550781 C 748.941406 53.53125 747.746094 54.042969 746.894531 54.929688 C 746.042969 55.84375 745.628906 57.050781 745.71875 58.285156 L 755.109375 177.382812 C 755.292969 179.652344 757.160156 181.398438 759.429688 181.433594 C 761.699219 181.46875 763.617188 179.757812 763.871094 177.515625 L 776.90625 58.761719 C 777.035156 57.53125 776.65625 56.289062 775.832031 55.375 C 774.988281 54.457031 773.828125 53.914062 772.574219 53.894531 Z M 750.175781 53.550781 " fill-opacity="1" fill-rule="nonzero"/></g></g></g><g clip-path="url(#c81310b275)"><g clip-path="url(#69f716a211)"><g clip-path="url(#8745117c73)"><path fill="#ff7a00" d="M 387.890625 229.316406 L 495.542969 281.125 C 496.132812 281.398438 496.769531 281.539062 497.386719 281.546875 C 498.90625 281.570312 500.394531 280.800781 501.230469 279.425781 C 502.40625 277.484375 501.894531 274.964844 500.085938 273.613281 L 403.984375 202.621094 C 402.984375 201.878906 401.730469 201.59375 400.515625 201.839844 C 399.300781 202.085938 398.234375 202.820312 397.597656 203.890625 L 386.027344 223.074219 C 385.394531 224.144531 385.21875 225.417969 385.574219 226.613281 C 385.933594 227.789062 386.753906 228.792969 387.890625 229.316406 Z M 387.890625 229.316406 " fill-opacity="1" fill-rule="nonzero"/></g></g></g><g clip-path="url(#b60bfcad3b)"><g clip-path="url(#c0c4b6b806)"><g clip-path="url(#1bec327d96)"><path fill="#ff7a00" d="M 603.027344 631.523438 C 601.195312 630.171875 598.636719 630.421875 597.136719 632.117188 L 542.054688 693.261719 C 541.226562 694.171875 540.832031 695.398438 540.945312 696.636719 C 541.058594 697.871094 541.703125 699.003906 542.703125 699.722656 L 555.097656 708.945312 C 555.835938 709.507812 556.734375 709.808594 557.660156 709.820312 C 557.96875 709.828125 558.277344 709.808594 558.566406 709.746094 C 559.78125 709.503906 560.847656 708.769531 561.480469 707.699219 L 604.171875 637.355469 C 605.347656 635.390625 604.855469 632.875 603.027344 631.523438 Z M 603.027344 631.523438 " fill-opacity="1" fill-rule="nonzero"/></g></g></g><g clip-path="url(#81455ccd87)"><g clip-path="url(#bec04a2811)"><g clip-path="url(#d1609e54f7)"><path fill="#ff7a00" d="M 896.800781 616.949219 C 895.238281 615.335938 892.707031 615.144531 890.925781 616.527344 C 889.140625 617.910156 888.707031 620.414062 889.890625 622.328125 L 940.195312 703.238281 C 940.839844 704.28125 941.910156 705.003906 943.117188 705.242188 C 943.359375 705.289062 943.621094 705.316406 943.863281 705.320312 C 944.832031 705.335938 945.761719 705.039062 946.542969 704.457031 L 962.851562 692.394531 C 963.878906 691.636719 964.511719 690.480469 964.621094 689.203125 C 964.726562 687.949219 964.285156 686.6875 963.394531 685.769531 Z M 896.800781 616.949219 " fill-opacity="1" fill-rule="nonzero"/></g></g></g><g transform="matrix(1, 0, 0, 1, 571, 239)"><g clip-path="url(#e8bd379383)"><g fill="#ffbd59" fill-opacity="1"><g transform="translate(74.120628, 307.656887)"><g><path d="M 17.214844 17.304688 C 10.21875 18.503906 3.683594 17.101562 -2.390625 13.089844 C -5.417969 11.09375 -7.917969 8.644531 -9.894531 5.75 C -12.023438 2.628906 -13.410156 -0.816406 -14.054688 -4.574219 L -48.9375 -208.136719 C -49.554688 -211.753906 -49.46875 -215.296875 -48.675781 -218.765625 C -47.835938 -222.4375 -46.261719 -225.789062 -43.953125 -228.824219 C -39.636719 -234.5 -33.988281 -237.9375 -27.007812 -239.132812 L 176.824219 -274.058594 C 184.246094 -275.332031 190.949219 -273.851562 196.933594 -269.617188 C 202.917969 -265.386719 206.546875 -259.554688 207.820312 -252.132812 L 216.65625 -200.5625 C 217.851562 -193.582031 216.492188 -187.113281 212.578125 -181.15625 C 210.484375 -177.96875 207.847656 -175.367188 204.664062 -173.351562 C 201.660156 -171.449219 198.347656 -170.1875 194.726562 -169.566406 L 72.320312 -148.589844 C 75.683594 -149.167969 78.382812 -150.792969 80.417969 -153.46875 C 81.585938 -155.007812 82.390625 -156.738281 82.832031 -158.667969 C 83.226562 -160.386719 83.285156 -162.0625 83.003906 -163.691406 C 82.382812 -167.316406 80.617188 -170.160156 77.707031 -172.21875 C 74.796875 -174.277344 71.527344 -174.996094 67.902344 -174.375 L 179.183594 -193.445312 C 186.34375 -194.671875 192.902344 -193.328125 198.863281 -189.414062 C 202.050781 -187.320312 204.652344 -184.679688 206.667969 -181.496094 C 208.570312 -178.492188 209.832031 -175.179688 210.449219 -171.5625 L 218.355469 -125.421875 C 219.554688 -118.441406 218.195312 -111.972656 214.28125 -106.015625 C 212.1875 -102.828125 209.546875 -100.226562 206.363281 -98.210938 C 203.359375 -96.304688 200.046875 -95.046875 196.429688 -94.425781 L 84.878906 -75.308594 C 88.238281 -75.886719 90.9375 -77.511719 92.972656 -80.1875 C 94.140625 -81.726562 94.949219 -83.457031 95.386719 -85.386719 C 95.78125 -87.105469 95.839844 -88.78125 95.5625 -90.410156 C 94.941406 -94.035156 93.175781 -96.878906 90.261719 -98.9375 C 87.351562 -100.996094 84.085938 -101.714844 80.460938 -101.09375 L 202.597656 -122.023438 C 209.757812 -123.25 216.316406 -121.90625 222.277344 -117.992188 C 225.464844 -115.898438 228.066406 -113.257812 230.078125 -110.078125 C 231.984375 -107.070312 233.246094 -103.761719 233.863281 -100.140625 L 242.699219 -48.574219 C 243.898438 -41.59375 242.539062 -35.125 238.625 -29.164062 C 236.53125 -25.976562 233.890625 -23.375 230.707031 -21.359375 C 227.703125 -19.457031 224.390625 -18.195312 220.773438 -17.574219 Z M 10.46875 -22.050781 L 214.027344 -56.929688 C 212.402344 -56.652344 210.839844 -56.039062 209.347656 -55.09375 C 207.675781 -54.035156 206.3125 -52.699219 205.25 -51.085938 C 203.40625 -48.277344 202.769531 -45.191406 203.347656 -41.828125 L 194.507812 -93.398438 C 194.789062 -91.769531 195.402344 -90.207031 196.347656 -88.714844 C 197.402344 -87.046875 198.738281 -85.679688 200.351562 -84.621094 C 203.164062 -82.773438 206.160156 -82.125 209.339844 -82.667969 L 87.203125 -61.738281 C 79.960938 -60.5 73.292969 -62.03125 67.203125 -66.339844 C 61.113281 -70.648438 57.449219 -76.425781 56.207031 -83.667969 C 55.585938 -87.285156 55.671875 -90.828125 56.46875 -94.296875 C 57.308594 -97.96875 58.882812 -101.324219 61.191406 -104.359375 C 65.507812 -110.03125 71.15625 -113.46875 78.136719 -114.664062 L 189.683594 -133.78125 C 188.058594 -133.5 186.496094 -132.886719 185.003906 -131.941406 C 183.332031 -130.886719 181.96875 -129.550781 180.90625 -127.9375 C 179.0625 -125.125 178.425781 -122.039062 179.003906 -118.679688 L 171.097656 -164.820312 C 171.375 -163.191406 171.988281 -161.628906 172.933594 -160.136719 C 173.992188 -158.464844 175.324219 -157.101562 176.9375 -156.042969 C 179.75 -154.195312 182.746094 -153.542969 185.925781 -154.089844 L 74.648438 -135.019531 C 67.402344 -133.78125 60.738281 -135.3125 54.648438 -139.621094 C 48.554688 -143.929688 44.890625 -149.707031 43.648438 -156.949219 C 43.03125 -160.566406 43.117188 -164.109375 43.910156 -167.578125 C 44.75 -171.25 46.324219 -174.605469 48.632812 -177.640625 C 52.949219 -183.316406 58.597656 -186.75 65.578125 -187.945312 L 187.984375 -208.921875 C 186.355469 -208.640625 184.796875 -208.03125 183.300781 -207.085938 C 181.632812 -206.027344 180.265625 -204.691406 179.207031 -203.078125 C 177.359375 -200.265625 176.726562 -197.179688 177.300781 -193.820312 L 168.464844 -245.386719 C 168.714844 -243.921875 169.257812 -242.5 170.085938 -241.117188 C 171.070312 -239.480469 172.332031 -238.113281 173.875 -237.023438 C 175.417969 -235.929688 177.125 -235.195312 179 -234.8125 C 180.578125 -234.488281 182.101562 -234.453125 183.566406 -234.707031 L -20.265625 -199.777344 C -16.902344 -200.355469 -14.203125 -201.980469 -12.167969 -204.65625 C -11 -206.195312 -10.195312 -207.925781 -9.753906 -209.851562 C -9.359375 -211.574219 -9.300781 -213.25 -9.582031 -214.878906 L 25.300781 -11.320312 C 24.964844 -13.269531 24.230469 -15.078125 23.09375 -16.746094 C 22.117188 -18.179688 20.953125 -19.34375 19.605469 -20.230469 C 16.894531 -22.023438 13.847656 -22.628906 10.46875 -22.050781 Z M 10.46875 -22.050781 "/></g></g></g><g fill="#040606" fill-opacity="1"><g transform="translate(74.120628, 307.656887)"><g><path d="M 13.84375 -2.375 C 12.039062 -2.0625 10.296875 -2.457031 8.609375 -3.5625 C 6.929688 -4.664062 5.941406 -6.128906 5.640625 -7.953125 L -29.25 -211.515625 C -29.582031 -213.492188 -29.179688 -215.234375 -28.046875 -216.734375 C -26.910156 -218.234375 -25.441406 -219.140625 -23.640625 -219.453125 L 180.203125 -254.375 C 182.191406 -254.71875 183.925781 -254.363281 185.40625 -253.3125 C 186.894531 -252.257812 187.804688 -250.742188 188.140625 -248.765625 L 196.984375 -197.1875 C 197.296875 -195.375 196.929688 -193.679688 195.890625 -192.109375 C 194.859375 -190.535156 193.347656 -189.578125 191.359375 -189.234375 L 68.9375 -168.265625 C 67.132812 -167.953125 65.664062 -167.046875 64.53125 -165.546875 C 63.394531 -164.054688 63 -162.3125 63.34375 -160.3125 C 63.644531 -158.507812 64.585938 -157.046875 66.171875 -155.921875 C 67.765625 -154.796875 69.460938 -154.390625 71.265625 -154.703125 L 182.546875 -173.765625 C 184.546875 -174.109375 186.332031 -173.757812 187.90625 -172.71875 C 189.476562 -171.6875 190.429688 -170.175781 190.765625 -168.1875 L 198.671875 -122.046875 C 198.984375 -120.234375 198.625 -118.539062 197.59375 -116.96875 C 196.5625 -115.40625 195.050781 -114.453125 193.0625 -114.109375 L 81.5 -95 C 79.695312 -94.6875 78.226562 -93.773438 77.09375 -92.265625 C 75.957031 -90.765625 75.554688 -89.019531 75.890625 -87.03125 C 76.203125 -85.21875 77.148438 -83.75 78.734375 -82.625 C 80.328125 -81.507812 82.023438 -81.109375 83.828125 -81.421875 L 205.96875 -102.34375 C 207.96875 -102.6875 209.75 -102.335938 211.3125 -101.296875 C 212.882812 -100.265625 213.84375 -98.753906 214.1875 -96.765625 L 223.03125 -45.203125 C 223.332031 -43.378906 222.96875 -41.679688 221.9375 -40.109375 C 220.90625 -38.546875 219.394531 -37.59375 217.40625 -37.25 Z M 13.84375 -2.375 "/></g></g></g></g></g></svg>